<mxfile host="Electron" modified="2024-11-07T03:36:08.690Z" agent="Mozilla/5.0 (Windows NT 10.0; Win64; x64) AppleWebKit/537.36 (KHTML, like Gecko) draw.io/22.0.2 Chrome/114.0.5735.289 Electron/25.8.4 Safari/537.36" etag="-s3CGcvpN5CHLC7Ge6Aj" version="22.0.2" type="device">
  <diagram id="C5RBs43oDa-KdzZeNtuy" name="Page-1">
    <mxGraphModel dx="972" dy="647" grid="1" gridSize="10" guides="1" tooltips="1" connect="1" arrows="1" fold="1" page="1" pageScale="1" pageWidth="827" pageHeight="1169" math="0" shadow="0">
      <root>
        <mxCell id="WIyWlLk6GJQsqaUBKTNV-0" />
        <mxCell id="WIyWlLk6GJQsqaUBKTNV-1" parent="WIyWlLk6GJQsqaUBKTNV-0" />
        <mxCell id="b3XTrvKkq-4fLmus94dN-2" value="" style="edgeStyle=orthogonalEdgeStyle;rounded=0;orthogonalLoop=1;jettySize=auto;html=1;shadow=0;sketch=1;curveFitting=1;jiggle=2;" edge="1" parent="WIyWlLk6GJQsqaUBKTNV-1" source="b3XTrvKkq-4fLmus94dN-0" target="b3XTrvKkq-4fLmus94dN-1">
          <mxGeometry relative="1" as="geometry" />
        </mxCell>
        <mxCell id="b3XTrvKkq-4fLmus94dN-0" value="创建 SqlSessionFactoryBuilder 对象" style="rounded=0;whiteSpace=wrap;html=1;shadow=0;sketch=1;curveFitting=1;jiggle=2;fillColor=#dae8fc;strokeColor=#6c8ebf;" vertex="1" parent="WIyWlLk6GJQsqaUBKTNV-1">
          <mxGeometry x="110" y="140" width="230" height="60" as="geometry" />
        </mxCell>
        <mxCell id="b3XTrvKkq-4fLmus94dN-4" value="" style="edgeStyle=orthogonalEdgeStyle;rounded=0;orthogonalLoop=1;jettySize=auto;html=1;shadow=0;sketch=1;curveFitting=1;jiggle=2;" edge="1" parent="WIyWlLk6GJQsqaUBKTNV-1" source="b3XTrvKkq-4fLmus94dN-1" target="b3XTrvKkq-4fLmus94dN-3">
          <mxGeometry relative="1" as="geometry" />
        </mxCell>
        <mxCell id="b3XTrvKkq-4fLmus94dN-1" value="初始化配置类 Configuration、&lt;br&gt;解析器 XPathParser" style="whiteSpace=wrap;html=1;rounded=0;fillColor=#d5e8d4;strokeColor=#82b366;shadow=0;sketch=1;curveFitting=1;jiggle=2;" vertex="1" parent="WIyWlLk6GJQsqaUBKTNV-1">
          <mxGeometry x="110" y="252" width="230" height="60" as="geometry" />
        </mxCell>
        <mxCell id="b3XTrvKkq-4fLmus94dN-6" value="" style="edgeStyle=orthogonalEdgeStyle;rounded=0;orthogonalLoop=1;jettySize=auto;html=1;shadow=0;sketch=1;curveFitting=1;jiggle=2;" edge="1" parent="WIyWlLk6GJQsqaUBKTNV-1" source="b3XTrvKkq-4fLmus94dN-3" target="b3XTrvKkq-4fLmus94dN-5">
          <mxGeometry relative="1" as="geometry" />
        </mxCell>
        <mxCell id="b3XTrvKkq-4fLmus94dN-45" style="edgeStyle=orthogonalEdgeStyle;rounded=0;orthogonalLoop=1;jettySize=auto;html=1;exitX=1;exitY=0.5;exitDx=0;exitDy=0;entryX=0;entryY=0.5;entryDx=0;entryDy=0;sketch=1;curveFitting=1;jiggle=2;" edge="1" parent="WIyWlLk6GJQsqaUBKTNV-1" source="b3XTrvKkq-4fLmus94dN-3" target="b3XTrvKkq-4fLmus94dN-9">
          <mxGeometry relative="1" as="geometry" />
        </mxCell>
        <mxCell id="b3XTrvKkq-4fLmus94dN-46" style="edgeStyle=orthogonalEdgeStyle;rounded=0;orthogonalLoop=1;jettySize=auto;html=1;exitX=1;exitY=0.5;exitDx=0;exitDy=0;entryX=0;entryY=0.5;entryDx=0;entryDy=0;sketch=1;curveFitting=1;jiggle=2;" edge="1" parent="WIyWlLk6GJQsqaUBKTNV-1" source="b3XTrvKkq-4fLmus94dN-3" target="b3XTrvKkq-4fLmus94dN-11">
          <mxGeometry relative="1" as="geometry" />
        </mxCell>
        <mxCell id="b3XTrvKkq-4fLmus94dN-47" style="edgeStyle=orthogonalEdgeStyle;rounded=0;orthogonalLoop=1;jettySize=auto;html=1;exitX=1;exitY=0.5;exitDx=0;exitDy=0;entryX=0;entryY=0.5;entryDx=0;entryDy=0;sketch=1;curveFitting=1;jiggle=2;" edge="1" parent="WIyWlLk6GJQsqaUBKTNV-1" source="b3XTrvKkq-4fLmus94dN-3" target="b3XTrvKkq-4fLmus94dN-10">
          <mxGeometry relative="1" as="geometry" />
        </mxCell>
        <mxCell id="b3XTrvKkq-4fLmus94dN-48" style="edgeStyle=orthogonalEdgeStyle;rounded=0;orthogonalLoop=1;jettySize=auto;html=1;exitX=1;exitY=0.5;exitDx=0;exitDy=0;entryX=0;entryY=0.5;entryDx=0;entryDy=0;sketch=1;curveFitting=1;jiggle=2;" edge="1" parent="WIyWlLk6GJQsqaUBKTNV-1" source="b3XTrvKkq-4fLmus94dN-3" target="b3XTrvKkq-4fLmus94dN-13">
          <mxGeometry relative="1" as="geometry" />
        </mxCell>
        <mxCell id="b3XTrvKkq-4fLmus94dN-49" style="edgeStyle=orthogonalEdgeStyle;rounded=0;orthogonalLoop=1;jettySize=auto;html=1;exitX=1;exitY=0.5;exitDx=0;exitDy=0;entryX=0;entryY=0.5;entryDx=0;entryDy=0;sketch=1;curveFitting=1;jiggle=2;" edge="1" parent="WIyWlLk6GJQsqaUBKTNV-1" source="b3XTrvKkq-4fLmus94dN-3" target="b3XTrvKkq-4fLmus94dN-12">
          <mxGeometry relative="1" as="geometry" />
        </mxCell>
        <mxCell id="b3XTrvKkq-4fLmus94dN-50" style="edgeStyle=orthogonalEdgeStyle;rounded=0;orthogonalLoop=1;jettySize=auto;html=1;exitX=1;exitY=0.5;exitDx=0;exitDy=0;entryX=0;entryY=0.5;entryDx=0;entryDy=0;sketch=1;curveFitting=1;jiggle=2;" edge="1" parent="WIyWlLk6GJQsqaUBKTNV-1" source="b3XTrvKkq-4fLmus94dN-3" target="b3XTrvKkq-4fLmus94dN-15">
          <mxGeometry relative="1" as="geometry" />
        </mxCell>
        <mxCell id="b3XTrvKkq-4fLmus94dN-51" style="edgeStyle=orthogonalEdgeStyle;rounded=0;orthogonalLoop=1;jettySize=auto;html=1;exitX=1;exitY=0.5;exitDx=0;exitDy=0;entryX=0;entryY=0.5;entryDx=0;entryDy=0;sketch=1;curveFitting=1;jiggle=2;" edge="1" parent="WIyWlLk6GJQsqaUBKTNV-1" source="b3XTrvKkq-4fLmus94dN-3" target="b3XTrvKkq-4fLmus94dN-16">
          <mxGeometry relative="1" as="geometry" />
        </mxCell>
        <mxCell id="b3XTrvKkq-4fLmus94dN-52" style="edgeStyle=orthogonalEdgeStyle;rounded=0;orthogonalLoop=1;jettySize=auto;html=1;exitX=1;exitY=0.5;exitDx=0;exitDy=0;entryX=0;entryY=0.5;entryDx=0;entryDy=0;sketch=1;curveFitting=1;jiggle=2;" edge="1" parent="WIyWlLk6GJQsqaUBKTNV-1" source="b3XTrvKkq-4fLmus94dN-3" target="b3XTrvKkq-4fLmus94dN-17">
          <mxGeometry relative="1" as="geometry" />
        </mxCell>
        <mxCell id="b3XTrvKkq-4fLmus94dN-53" style="edgeStyle=orthogonalEdgeStyle;rounded=0;orthogonalLoop=1;jettySize=auto;html=1;exitX=1;exitY=0.5;exitDx=0;exitDy=0;entryX=0;entryY=0.5;entryDx=0;entryDy=0;sketch=1;curveFitting=1;jiggle=2;" edge="1" parent="WIyWlLk6GJQsqaUBKTNV-1" source="b3XTrvKkq-4fLmus94dN-3" target="b3XTrvKkq-4fLmus94dN-18">
          <mxGeometry relative="1" as="geometry" />
        </mxCell>
        <mxCell id="b3XTrvKkq-4fLmus94dN-54" style="edgeStyle=orthogonalEdgeStyle;rounded=0;orthogonalLoop=1;jettySize=auto;html=1;exitX=1;exitY=0.5;exitDx=0;exitDy=0;entryX=0;entryY=0.5;entryDx=0;entryDy=0;sketch=1;curveFitting=1;jiggle=2;" edge="1" parent="WIyWlLk6GJQsqaUBKTNV-1" source="b3XTrvKkq-4fLmus94dN-3" target="b3XTrvKkq-4fLmus94dN-14">
          <mxGeometry relative="1" as="geometry" />
        </mxCell>
        <mxCell id="b3XTrvKkq-4fLmus94dN-55" style="edgeStyle=orthogonalEdgeStyle;rounded=0;orthogonalLoop=1;jettySize=auto;html=1;exitX=1;exitY=0.5;exitDx=0;exitDy=0;entryX=0;entryY=0.5;entryDx=0;entryDy=0;sketch=1;curveFitting=1;jiggle=2;" edge="1" parent="WIyWlLk6GJQsqaUBKTNV-1" source="b3XTrvKkq-4fLmus94dN-3" target="b3XTrvKkq-4fLmus94dN-20">
          <mxGeometry relative="1" as="geometry" />
        </mxCell>
        <mxCell id="b3XTrvKkq-4fLmus94dN-3" value="解析配置文件信息" style="whiteSpace=wrap;html=1;rounded=0;fillColor=#f8cecc;strokeColor=#b85450;shadow=0;sketch=1;curveFitting=1;jiggle=2;" vertex="1" parent="WIyWlLk6GJQsqaUBKTNV-1">
          <mxGeometry x="110" y="380" width="230" height="60" as="geometry" />
        </mxCell>
        <mxCell id="b3XTrvKkq-4fLmus94dN-8" value="" style="edgeStyle=orthogonalEdgeStyle;rounded=0;orthogonalLoop=1;jettySize=auto;html=1;shadow=0;sketch=1;curveFitting=1;jiggle=2;" edge="1" parent="WIyWlLk6GJQsqaUBKTNV-1" source="b3XTrvKkq-4fLmus94dN-5" target="b3XTrvKkq-4fLmus94dN-7">
          <mxGeometry relative="1" as="geometry" />
        </mxCell>
        <mxCell id="b3XTrvKkq-4fLmus94dN-5" value="全局配置类 Configuration" style="whiteSpace=wrap;html=1;rounded=0;fillColor=#ffe6cc;strokeColor=#d79b00;shadow=0;sketch=1;curveFitting=1;jiggle=2;" vertex="1" parent="WIyWlLk6GJQsqaUBKTNV-1">
          <mxGeometry x="110" y="510" width="230" height="60" as="geometry" />
        </mxCell>
        <mxCell id="b3XTrvKkq-4fLmus94dN-7" value="创建 SqlSessionFactory 对象，并持有全部配置类 Configuration" style="whiteSpace=wrap;html=1;rounded=0;fillColor=#e1d5e7;strokeColor=#9673a6;shadow=0;sketch=1;curveFitting=1;jiggle=2;" vertex="1" parent="WIyWlLk6GJQsqaUBKTNV-1">
          <mxGeometry x="110" y="650" width="230" height="60" as="geometry" />
        </mxCell>
        <mxCell id="b3XTrvKkq-4fLmus94dN-31" style="edgeStyle=orthogonalEdgeStyle;rounded=0;orthogonalLoop=1;jettySize=auto;html=1;exitX=1;exitY=0.5;exitDx=0;exitDy=0;fillColor=#dae8fc;strokeColor=#6c8ebf;sketch=1;curveFitting=1;jiggle=2;" edge="1" parent="WIyWlLk6GJQsqaUBKTNV-1" source="b3XTrvKkq-4fLmus94dN-9" target="b3XTrvKkq-4fLmus94dN-19">
          <mxGeometry relative="1" as="geometry" />
        </mxCell>
        <mxCell id="b3XTrvKkq-4fLmus94dN-9" value="解析 properties 标签" style="rounded=0;whiteSpace=wrap;html=1;fillColor=#dae8fc;strokeColor=#6c8ebf;sketch=1;curveFitting=1;jiggle=2;" vertex="1" parent="WIyWlLk6GJQsqaUBKTNV-1">
          <mxGeometry x="430" y="138" width="230" height="40" as="geometry" />
        </mxCell>
        <mxCell id="b3XTrvKkq-4fLmus94dN-34" style="edgeStyle=orthogonalEdgeStyle;rounded=0;orthogonalLoop=1;jettySize=auto;html=1;exitX=1;exitY=0.5;exitDx=0;exitDy=0;entryX=0;entryY=0.5;entryDx=0;entryDy=0;sketch=1;curveFitting=1;jiggle=2;fillColor=#fad7ac;strokeColor=#b46504;" edge="1" parent="WIyWlLk6GJQsqaUBKTNV-1" source="b3XTrvKkq-4fLmus94dN-10" target="b3XTrvKkq-4fLmus94dN-25">
          <mxGeometry relative="1" as="geometry" />
        </mxCell>
        <mxCell id="b3XTrvKkq-4fLmus94dN-10" value="解析 typeAliases 标签" style="rounded=0;whiteSpace=wrap;html=1;sketch=1;curveFitting=1;jiggle=2;fillColor=#fad7ac;strokeColor=#b46504;" vertex="1" parent="WIyWlLk6GJQsqaUBKTNV-1">
          <mxGeometry x="430" y="252" width="230" height="40" as="geometry" />
        </mxCell>
        <mxCell id="b3XTrvKkq-4fLmus94dN-33" style="edgeStyle=orthogonalEdgeStyle;rounded=0;orthogonalLoop=1;jettySize=auto;html=1;exitX=1;exitY=0.5;exitDx=0;exitDy=0;sketch=1;curveFitting=1;jiggle=2;fillColor=#b0e3e6;strokeColor=#0e8088;" edge="1" parent="WIyWlLk6GJQsqaUBKTNV-1" source="b3XTrvKkq-4fLmus94dN-11" target="b3XTrvKkq-4fLmus94dN-24">
          <mxGeometry relative="1" as="geometry" />
        </mxCell>
        <mxCell id="b3XTrvKkq-4fLmus94dN-11" value="解析 settings 标签" style="rounded=0;whiteSpace=wrap;html=1;sketch=1;curveFitting=1;jiggle=2;fillColor=#b0e3e6;strokeColor=#0e8088;" vertex="1" parent="WIyWlLk6GJQsqaUBKTNV-1">
          <mxGeometry x="430" y="195" width="230" height="40" as="geometry" />
        </mxCell>
        <mxCell id="b3XTrvKkq-4fLmus94dN-36" style="edgeStyle=orthogonalEdgeStyle;rounded=0;orthogonalLoop=1;jettySize=auto;html=1;exitX=1;exitY=0.5;exitDx=0;exitDy=0;entryX=0;entryY=0.5;entryDx=0;entryDy=0;sketch=1;curveFitting=1;jiggle=2;fillColor=#bac8d3;strokeColor=#23445d;" edge="1" parent="WIyWlLk6GJQsqaUBKTNV-1" source="b3XTrvKkq-4fLmus94dN-12" target="b3XTrvKkq-4fLmus94dN-27">
          <mxGeometry relative="1" as="geometry" />
        </mxCell>
        <mxCell id="b3XTrvKkq-4fLmus94dN-12" value="解析 objectFactory 标签" style="rounded=0;whiteSpace=wrap;html=1;sketch=1;curveFitting=1;jiggle=2;fillColor=#bac8d3;strokeColor=#23445d;" vertex="1" parent="WIyWlLk6GJQsqaUBKTNV-1">
          <mxGeometry x="430" y="366" width="230" height="40" as="geometry" />
        </mxCell>
        <mxCell id="b3XTrvKkq-4fLmus94dN-35" style="edgeStyle=orthogonalEdgeStyle;rounded=0;orthogonalLoop=1;jettySize=auto;html=1;exitX=1;exitY=0.5;exitDx=0;exitDy=0;entryX=0;entryY=0.5;entryDx=0;entryDy=0;sketch=1;curveFitting=1;jiggle=2;fillColor=#d0cee2;strokeColor=#56517e;" edge="1" parent="WIyWlLk6GJQsqaUBKTNV-1" source="b3XTrvKkq-4fLmus94dN-13" target="b3XTrvKkq-4fLmus94dN-26">
          <mxGeometry relative="1" as="geometry" />
        </mxCell>
        <mxCell id="b3XTrvKkq-4fLmus94dN-13" value="解析 plugins 标签" style="rounded=0;whiteSpace=wrap;html=1;sketch=1;curveFitting=1;jiggle=2;fillColor=#d0cee2;strokeColor=#56517e;" vertex="1" parent="WIyWlLk6GJQsqaUBKTNV-1">
          <mxGeometry x="430" y="309" width="230" height="40" as="geometry" />
        </mxCell>
        <mxCell id="b3XTrvKkq-4fLmus94dN-44" style="edgeStyle=orthogonalEdgeStyle;rounded=0;orthogonalLoop=1;jettySize=auto;html=1;exitX=1;exitY=0.5;exitDx=0;exitDy=0;entryX=0;entryY=0.5;entryDx=0;entryDy=0;sketch=1;curveFitting=1;jiggle=2;fillColor=#e1d5e7;strokeColor=#9673a6;" edge="1" parent="WIyWlLk6GJQsqaUBKTNV-1" source="b3XTrvKkq-4fLmus94dN-14" target="b3XTrvKkq-4fLmus94dN-41">
          <mxGeometry relative="1" as="geometry" />
        </mxCell>
        <mxCell id="b3XTrvKkq-4fLmus94dN-14" value="解析 typeHandlers 标签" style="rounded=0;whiteSpace=wrap;html=1;sketch=1;curveFitting=1;jiggle=2;fillColor=#e1d5e7;strokeColor=#9673a6;" vertex="1" parent="WIyWlLk6GJQsqaUBKTNV-1">
          <mxGeometry x="430" y="651" width="230" height="40" as="geometry" />
        </mxCell>
        <mxCell id="b3XTrvKkq-4fLmus94dN-37" style="edgeStyle=orthogonalEdgeStyle;rounded=0;orthogonalLoop=1;jettySize=auto;html=1;exitX=1;exitY=0.5;exitDx=0;exitDy=0;entryX=0;entryY=0.5;entryDx=0;entryDy=0;sketch=1;curveFitting=1;jiggle=2;fillColor=#fad9d5;strokeColor=#ae4132;" edge="1" parent="WIyWlLk6GJQsqaUBKTNV-1" source="b3XTrvKkq-4fLmus94dN-15" target="b3XTrvKkq-4fLmus94dN-28">
          <mxGeometry relative="1" as="geometry" />
        </mxCell>
        <mxCell id="b3XTrvKkq-4fLmus94dN-15" value="解析 objectWrapperFactory 标签" style="rounded=0;whiteSpace=wrap;html=1;sketch=1;curveFitting=1;jiggle=2;fillColor=#fad9d5;strokeColor=#ae4132;" vertex="1" parent="WIyWlLk6GJQsqaUBKTNV-1">
          <mxGeometry x="430" y="423" width="230" height="40" as="geometry" />
        </mxCell>
        <mxCell id="b3XTrvKkq-4fLmus94dN-38" style="edgeStyle=orthogonalEdgeStyle;rounded=0;orthogonalLoop=1;jettySize=auto;html=1;exitX=1;exitY=0.5;exitDx=0;exitDy=0;entryX=0;entryY=0.5;entryDx=0;entryDy=0;sketch=1;curveFitting=1;jiggle=2;fillColor=#ffff88;strokeColor=#36393d;" edge="1" parent="WIyWlLk6GJQsqaUBKTNV-1" source="b3XTrvKkq-4fLmus94dN-16" target="b3XTrvKkq-4fLmus94dN-29">
          <mxGeometry relative="1" as="geometry" />
        </mxCell>
        <mxCell id="b3XTrvKkq-4fLmus94dN-16" value="解析 reflectorFactory 标签" style="rounded=0;whiteSpace=wrap;html=1;sketch=1;curveFitting=1;jiggle=2;fillColor=#ffff88;strokeColor=#36393d;" vertex="1" parent="WIyWlLk6GJQsqaUBKTNV-1">
          <mxGeometry x="430" y="480" width="230" height="40" as="geometry" />
        </mxCell>
        <mxCell id="b3XTrvKkq-4fLmus94dN-39" style="edgeStyle=orthogonalEdgeStyle;rounded=0;orthogonalLoop=1;jettySize=auto;html=1;exitX=1;exitY=0.5;exitDx=0;exitDy=0;entryX=0;entryY=0.5;entryDx=0;entryDy=0;sketch=1;curveFitting=1;jiggle=2;fillColor=#cdeb8b;strokeColor=#36393d;" edge="1" parent="WIyWlLk6GJQsqaUBKTNV-1" source="b3XTrvKkq-4fLmus94dN-17" target="b3XTrvKkq-4fLmus94dN-30">
          <mxGeometry relative="1" as="geometry" />
        </mxCell>
        <mxCell id="b3XTrvKkq-4fLmus94dN-17" value="解析 environments 标签" style="rounded=0;whiteSpace=wrap;html=1;sketch=1;curveFitting=1;jiggle=2;fillColor=#cdeb8b;strokeColor=#36393d;" vertex="1" parent="WIyWlLk6GJQsqaUBKTNV-1">
          <mxGeometry x="430" y="537" width="230" height="40" as="geometry" />
        </mxCell>
        <mxCell id="b3XTrvKkq-4fLmus94dN-43" style="edgeStyle=orthogonalEdgeStyle;rounded=0;orthogonalLoop=1;jettySize=auto;html=1;exitX=1;exitY=0.5;exitDx=0;exitDy=0;entryX=0;entryY=0.5;entryDx=0;entryDy=0;sketch=1;curveFitting=1;jiggle=2;fillColor=#ffcccc;strokeColor=#36393d;" edge="1" parent="WIyWlLk6GJQsqaUBKTNV-1" source="b3XTrvKkq-4fLmus94dN-18" target="b3XTrvKkq-4fLmus94dN-40">
          <mxGeometry relative="1" as="geometry" />
        </mxCell>
        <mxCell id="b3XTrvKkq-4fLmus94dN-18" value="解析 databaseIdProvider 标签" style="rounded=0;whiteSpace=wrap;html=1;sketch=1;curveFitting=1;jiggle=2;fillColor=#ffcccc;strokeColor=#36393d;" vertex="1" parent="WIyWlLk6GJQsqaUBKTNV-1">
          <mxGeometry x="430" y="594" width="230" height="40" as="geometry" />
        </mxCell>
        <mxCell id="b3XTrvKkq-4fLmus94dN-19" value="configuration 中 variables 属性" style="rounded=0;whiteSpace=wrap;html=1;fillColor=#dae8fc;strokeColor=#6c8ebf;sketch=1;curveFitting=1;jiggle=2;" vertex="1" parent="WIyWlLk6GJQsqaUBKTNV-1">
          <mxGeometry x="740" y="138" width="230" height="40" as="geometry" />
        </mxCell>
        <mxCell id="b3XTrvKkq-4fLmus94dN-42" style="edgeStyle=orthogonalEdgeStyle;rounded=0;orthogonalLoop=1;jettySize=auto;html=1;exitX=1;exitY=0.5;exitDx=0;exitDy=0;entryX=0;entryY=0.5;entryDx=0;entryDy=0;sketch=1;curveFitting=1;jiggle=2;fillColor=#1ba1e2;strokeColor=#006EAF;fontColor=#000000;" edge="1" parent="WIyWlLk6GJQsqaUBKTNV-1" source="b3XTrvKkq-4fLmus94dN-20" target="b3XTrvKkq-4fLmus94dN-23">
          <mxGeometry relative="1" as="geometry" />
        </mxCell>
        <mxCell id="b3XTrvKkq-4fLmus94dN-20" value="解析 mappers 标签" style="rounded=0;whiteSpace=wrap;html=1;sketch=1;curveFitting=1;jiggle=2;fillColor=#1ba1e2;fontColor=#000000;strokeColor=#006EAF;" vertex="1" parent="WIyWlLk6GJQsqaUBKTNV-1">
          <mxGeometry x="430" y="723" width="230" height="40" as="geometry" />
        </mxCell>
        <mxCell id="b3XTrvKkq-4fLmus94dN-23" value="configuration 中 &lt;br&gt;mappedStatements、&lt;br&gt;resultMaps、&lt;br&gt;mapperRegistry 属性" style="rounded=0;whiteSpace=wrap;html=1;sketch=1;curveFitting=1;jiggle=2;fillColor=#1ba1e2;fontColor=#000000;strokeColor=#006EAF;" vertex="1" parent="WIyWlLk6GJQsqaUBKTNV-1">
          <mxGeometry x="740" y="708" width="230" height="70" as="geometry" />
        </mxCell>
        <mxCell id="b3XTrvKkq-4fLmus94dN-24" value="详见 XMLConfiguration#settingsElement()" style="rounded=0;whiteSpace=wrap;html=1;sketch=1;curveFitting=1;jiggle=2;fillColor=#b0e3e6;strokeColor=#0e8088;" vertex="1" parent="WIyWlLk6GJQsqaUBKTNV-1">
          <mxGeometry x="740" y="195" width="230" height="40" as="geometry" />
        </mxCell>
        <mxCell id="b3XTrvKkq-4fLmus94dN-25" value="configuration 中 typeAliasRegistry 属性" style="rounded=0;whiteSpace=wrap;html=1;sketch=1;curveFitting=1;jiggle=2;fillColor=#fad7ac;strokeColor=#b46504;" vertex="1" parent="WIyWlLk6GJQsqaUBKTNV-1">
          <mxGeometry x="740" y="252" width="230" height="40" as="geometry" />
        </mxCell>
        <mxCell id="b3XTrvKkq-4fLmus94dN-26" value="configuration 中&amp;nbsp;interceptorChain 属性" style="rounded=0;whiteSpace=wrap;html=1;sketch=1;curveFitting=1;jiggle=2;fillColor=#d0cee2;strokeColor=#56517e;" vertex="1" parent="WIyWlLk6GJQsqaUBKTNV-1">
          <mxGeometry x="740" y="309" width="230" height="40" as="geometry" />
        </mxCell>
        <mxCell id="b3XTrvKkq-4fLmus94dN-27" value="configuration 中&lt;br&gt;&amp;nbsp;objectFactory 属性" style="rounded=0;whiteSpace=wrap;html=1;sketch=1;curveFitting=1;jiggle=2;fillColor=#bac8d3;strokeColor=#23445d;" vertex="1" parent="WIyWlLk6GJQsqaUBKTNV-1">
          <mxGeometry x="740" y="366" width="230" height="40" as="geometry" />
        </mxCell>
        <mxCell id="b3XTrvKkq-4fLmus94dN-28" value="configuration 中 &lt;br&gt;objectWrapperFactory 属性" style="rounded=0;whiteSpace=wrap;html=1;sketch=1;curveFitting=1;jiggle=2;fillColor=#fad9d5;strokeColor=#ae4132;" vertex="1" parent="WIyWlLk6GJQsqaUBKTNV-1">
          <mxGeometry x="740" y="423" width="230" height="40" as="geometry" />
        </mxCell>
        <mxCell id="b3XTrvKkq-4fLmus94dN-29" value="configuration 中 &lt;br&gt;reflectorFactory 属性" style="rounded=0;whiteSpace=wrap;html=1;sketch=1;curveFitting=1;jiggle=2;fillColor=#ffff88;strokeColor=#36393d;" vertex="1" parent="WIyWlLk6GJQsqaUBKTNV-1">
          <mxGeometry x="740" y="480" width="230" height="40" as="geometry" />
        </mxCell>
        <mxCell id="b3XTrvKkq-4fLmus94dN-30" value="configuration 中 &lt;br&gt;environment 属性" style="rounded=0;whiteSpace=wrap;html=1;sketch=1;curveFitting=1;jiggle=2;fillColor=#cdeb8b;strokeColor=#36393d;" vertex="1" parent="WIyWlLk6GJQsqaUBKTNV-1">
          <mxGeometry x="740" y="537" width="230" height="40" as="geometry" />
        </mxCell>
        <mxCell id="b3XTrvKkq-4fLmus94dN-40" value="configuration 中 &lt;br&gt;databaseId 属性" style="rounded=0;whiteSpace=wrap;html=1;sketch=1;curveFitting=1;jiggle=2;fillColor=#ffcccc;strokeColor=#36393d;" vertex="1" parent="WIyWlLk6GJQsqaUBKTNV-1">
          <mxGeometry x="740" y="594" width="230" height="40" as="geometry" />
        </mxCell>
        <mxCell id="b3XTrvKkq-4fLmus94dN-41" value="configuration 中 &lt;br&gt;typeHandlerRegistry 属性" style="rounded=0;whiteSpace=wrap;html=1;sketch=1;curveFitting=1;jiggle=2;fillColor=#e1d5e7;strokeColor=#9673a6;" vertex="1" parent="WIyWlLk6GJQsqaUBKTNV-1">
          <mxGeometry x="740" y="651" width="230" height="40" as="geometry" />
        </mxCell>
      </root>
    </mxGraphModel>
  </diagram>
</mxfile>
